<?xml version="1.0" encoding="utf-8"?>
<!-- Generator: Adobe Illustrator 19.2.1, SVG Export Plug-In . SVG Version: 6.00 Build 0)  -->
<svg version="1.1" id="Layer_1" xmlns="http://www.w3.org/2000/svg" xmlns:xlink="http://www.w3.org/1999/xlink" x="0px" y="0px"
	 viewBox="0 0 74.2 95.4" style="enable-background:new 0 0 74.2 95.4;" xml:space="preserve">
<style type="text/css">
	.st0{fill:#333E48;}
	.st1{fill:#F7323F;}
</style>
<g>
	<path class="st0" d="M52,2.9v6.8c-0.6-0.8-1.3-1.5-2-2.2v21.8c0.3,1.1,0.4,2.4,0.4,3.8c0,1.4-0.1,2.6-0.4,3.8v22.9c0,0,0,0,0,0v2.4
		c0,2-0.4,3.8-1.2,5.3c-0.8,1.5-1.9,2.7-3.3,3.6c-1.4,0.9-3,1.6-4.8,2c-1.8,0.4-3.7,0.7-5.7,0.7c-3.4,0-6.7-0.6-9.7-1.8
		c-3.1-1.2-6.3-3.1-9.6-5.7L4.2,82.2c3.9,3.3,8.6,6.1,14,8.4C23.7,92.9,30,94,37.4,94c5,0,9.7-0.6,14-1.9c4.3-1.3,8-3.2,11.2-5.9
		c3.2-2.7,5.6-6.1,7.4-10.3c1.8-4.2,2.7-9.3,2.7-15.1V2.9H52z"/>
	<path class="st1" d="M33.7,1.3C15.9,1.3,1.5,15.8,1.5,33.6s14.4,32.2,32.2,32.2S66,51.4,66,33.6S51.5,1.3,33.7,1.3z M33.7,45.3
		c-6.5,0-11.7-5.2-11.7-11.7s5.2-11.7,11.7-11.7s11.7,5.2,11.7,11.7S40.2,45.3,33.7,45.3z"/>
</g>
</svg>
